HIERARCHY
ROOT hip
{
  OFFSET 0 0 0
  CHANNELS 6 Xposition Yposition Zposition Zrotation Yrotation Xrotation
  JOINT abdomen
  {
    OFFSET 0 20.6881 -0.73152
    CHANNELS 3 Zrotation Xrotation Yrotation
    JOINT chest
    {
      OFFSET 0 11.7043 -0.48768
      CHANNELS 3 Zrotation Xrotation Yrotation
      JOINT neck
      {
        OFFSET 0 22.1894 -2.19456
        CHANNELS 3 Zrotation Xrotation Yrotation
        JOINT head
        {
          OFFSET -0.24384 7.07133 1.2192
          CHANNELS 3 Zrotation Xrotation Yrotation
          JOINT leftEye
          {
            OFFSET 4.14528 8.04674 8.04672
            CHANNELS 3 Zrotation Xrotation Yrotation
            End Site
            {
              OFFSET 1 0 0
            }
          }
          JOINT rightEye
          {
            OFFSET -3.6576 8.04674 8.04672
            CHANNELS 3 Zrotation Xrotation Yrotation
            End Site
            {
              OFFSET 1 0 0
            }
          }
        }
      }
      JOINT rCollar
      {
        OFFSET -2.68224 19.2634 -4.8768
        CHANNELS 3 Zrotation Xrotation Yrotation
        JOINT rShldr
        {
          OFFSET -8.77824 -1.95073 1.46304
          CHANNELS 3 Zrotation Xrotation Yrotation
          JOINT rForeArm
          {
            OFFSET -28.1742 -1.7115 0.48768
            CHANNELS 3 Zrotation Xrotation Yrotation
            JOINT rHand
            {
              OFFSET -22.5879 0.773209 7.07136
              CHANNELS 3 Zrotation Xrotation Yrotation
              JOINT rThumb1
              {
                OFFSET -1.2192 -0.487915 3.41376
                CHANNELS 3 Zrotation Xrotation Yrotation
                JOINT rThumb2
                {
                  OFFSET -3.37035 -0.52449 3.41376
                  CHANNELS 3 Zrotation Xrotation Yrotation
                  End Site
                  {
                    OFFSET -1.78271 -1.18214 1.43049
                  }
                }
              }
              JOINT rIndex1
              {
                OFFSET -7.75947 0.938293 5.60832
                CHANNELS 3 Zrotation Xrotation Yrotation
                JOINT rIndex2
                {
                  OFFSET -2.54057 -0.884171 1.56538
                  CHANNELS 3 Zrotation Xrotation Yrotation
                  End Site
                  {
                    OFFSET -1.62519 -0.234802 1.16502
                  }
                }
              }
              JOINT rMid1
              {
                OFFSET -8.24714 1.18213 3.41376
                CHANNELS 3 Zrotation Xrotation Yrotation
                JOINT rMid2
                {
                  OFFSET -3.10165 -0.590103 1.0647
                  CHANNELS 3 Zrotation Xrotation Yrotation
                  End Site
                  {
                    OFFSET -2.48547 -0.328903 0.83742
                  }
                }
              }
              JOINT rRing1
              {
                OFFSET -8.82822 0.546677 1.51678
                CHANNELS 3 Zrotation Xrotation Yrotation
                JOINT rRing2
                {
                  OFFSET -2.60934 -0.819778 -0.0198488
                  CHANNELS 3 Zrotation Xrotation Yrotation
                  End Site
                  {
                    OFFSET -2.33842 -0.294052 0.168128
                  }
                }
              }
              JOINT rPinky1
              {
                OFFSET -8.27202 -0.0477905 -0.4584
                CHANNELS 3 Zrotation Xrotation Yrotation
                JOINT rPinky2
                {
                  OFFSET -1.82734 -0.647385 -0.700984
                  CHANNELS 3 Zrotation Xrotation Yrotation
                  End Site
                  {
                    OFFSET -1.69225 -0.51767 -0.607171
                  }
                }
              }
            }
          }
        }
      }
      JOINT lCollar
      {
        OFFSET 2.68224 19.2634 -4.8768
        CHANNELS 3 Zrotation Xrotation Yrotation
        JOINT lShldr
        {
          OFFSET 8.77824 -1.95073 1.46304
          CHANNELS 3 Zrotation Xrotation Yrotation
          JOINT lForeArm
          {
            OFFSET 28.1742 -1.7115 0.48768
            CHANNELS 3 Zrotation Xrotation Yrotation
            JOINT lHand
            {
              OFFSET 22.5879 0.773209 7.07136
              CHANNELS 3 Zrotation Xrotation Yrotation
              JOINT lThumb1
              {
                OFFSET 1.2192 -0.487915 3.41376
                CHANNELS 3 Zrotation Xrotation Yrotation
                JOINT lThumb2
                {
                  OFFSET 3.37035 -0.52449 3.41376
                  CHANNELS 3 Zrotation Xrotation Yrotation
                  End Site
                  {
                    OFFSET 1.78271 -1.18214 1.43049
                  }
                }
              }
              JOINT lIndex1
              {
                OFFSET 7.75947 0.938293 5.60832
                CHANNELS 3 Zrotation Xrotation Yrotation
                JOINT lIndex2
                {
                  OFFSET 2.54057 -0.884171 1.56538
                  CHANNELS 3 Zrotation Xrotation Yrotation
                  End Site
                  {
                    OFFSET 1.62519 -0.234802 1.16502
                  }
                }
              }
              JOINT lMid1
              {
                OFFSET 8.24714 1.18213 3.41376
                CHANNELS 3 Zrotation Xrotation Yrotation
                JOINT lMid2
                {
                  OFFSET 3.10165 -0.590103 1.0647
                  CHANNELS 3 Zrotation Xrotation Yrotation
                  End Site
                  {
                    OFFSET 2.48547 -0.328903 0.83742
                  }
                }
              }
              JOINT lRing1
              {
                OFFSET 8.82822 0.546677 1.51678
                CHANNELS 3 Zrotation Xrotation Yrotation
                JOINT lRing2
                {
                  OFFSET 2.60934 -0.819778 -0.0198488
                  CHANNELS 3 Zrotation Xrotation Yrotation
                  End Site
                  {
                    OFFSET 2.33842 -0.294052 0.168128
                  }
                }
              }
              JOINT lPinky1
              {
                OFFSET 8.27202 -0.0477905 -0.4584
                CHANNELS 3 Zrotation Xrotation Yrotation
                JOINT lPinky2
                {
                  OFFSET 1.82734 -0.647385 -0.700984
                  CHANNELS 3 Zrotation Xrotation Yrotation
                  End Site
                  {
                    OFFSET 1.69225 -0.51767 -0.607171
                  }
                }
              }
            }
          }
        }
      }
    }
  }
  JOINT rButtock
  {
    OFFSET -8.77824 4.35084 1.2192
    CHANNELS 3 Zrotation Xrotation Yrotation
    JOINT rThigh
    {
      OFFSET 0 -1.70687 -2.19456
      CHANNELS 3 Zrotation Xrotation Yrotation
      JOINT rShin
      {
        OFFSET 0 -36.8199 0.73152
        CHANNELS 3 Zrotation Xrotation Yrotation
        JOINT rFoot
        {
          OFFSET 0.73152 -45.1104 -5.12064
          CHANNELS 3 Zrotation Xrotation Yrotation
          End Site
          {
            OFFSET -1.1221 -3.69964 12.103
          }
        }
      }
    }
  }
  JOINT lButtock
  {
    OFFSET 8.77824 4.35084 1.2192
    CHANNELS 3 Zrotation Xrotation Yrotation
    JOINT lThigh
    {
      OFFSET 0 -1.70687 -2.19456
      CHANNELS 3 Zrotation Xrotation Yrotation
      JOINT lShin
      {
        OFFSET 0 -36.8199 0.73152
        CHANNELS 3 Zrotation Xrotation Yrotation
        JOINT lFoot
        {
          OFFSET -0.73152 -45.1104 -5.12064
          CHANNELS 3 Zrotation Xrotation Yrotation
          End Site
          {
            OFFSET 1.1221 -3.69964 12.103
          }
        }
      }
    }
  }
}
MOTION
Frames:	7
Frame Time:	0.00833333
5.84567 85.0372 -46.2535 6.2573 4.0435 1.189 -5.2467 3.92557 -4.3872 5.08852 -1.43433 -1.20333 -9.59302 -0.323716 -2.98366 7.23567 1.50113 -3.27478 -0.0 0.0 0.0 -0.0 0.0 0.0 -2.85253e-14 1.52648e-15 -1.49558e-14 82.9419 1.64392 -4.94403 -10.7851 -4.63221 19.2823 -0.281626 14.9299 2.14764 -9.36759e-12 3.58254e-10 4.46542e-10 -1.14068e-11 6.18933e-10 7.72408e-10 -9.36476e-12 3.58252e-10 4.46526e-10 7.73091 5.47488 0.417314 -9.36984e-12 3.58255e-10 4.46539e-10 2.90554 0.965183 0.102902 -9.36456e-12 3.58255e-10 4.4654e-10 10.2786 0.731801 0.0259123 -9.36995e-12 3.58255e-10 4.46543e-10 2.22167 -0.733487 -0.20892 -2.86419e-14 1.5226e-15 -1.51806e-14 -73.7329 24.6075 -13.5679 15.0286 -7.81537 -27.6467 0.0385781 5.60254 -0.789923 5.77018e-11 -6.29276e-11 2.57328e-10 1.00504e-10 -1.08481e-10 4.45958e-10 5.77e-11 -6.29197e-11 2.57342e-10 -7.73091 5.47488 -0.417314 5.76982e-11 -6.29351e-11 2.57329e-10 -2.90554 0.965183 -0.102902 5.76882e-11 -6.29354e-11 2.57322e-10 -10.2786 0.731801 -0.0259123 5.77037e-11 -6.2922e-11 2.57318e-10 -2.22167 -0.733487 0.20892 -2.03217e-16 0.0 -3.88251e-19 -6.00125 -29.7264 3.6995 -0.0620436 14.9173 -0.0537762 -0.919441 1.10193 -10.8914 2.03217e-16 0.0 3.88251e-19 -9.48341 -0.36468 -0.396915 0.109884 21.7644 -0.303522 0.29115 -12.7162 -0.468521
5.79607 84.9758 -45.4725 6.3368 4.1542 1.1934 -5.24078 3.94242 -4.33495 5.06303 -1.44701 -1.18826 -9.57672 -0.412124 -3.03018 7.23823 1.45915 -3.35397 -0.0 0.0 0.0 -0.0 0.0 0.0 -1.03309e-13 2.38736e-15 -5.91384e-14 82.9704 1.59604 -5.03953 -10.7426 -4.60503 19.2015 -0.289512 15.1365 2.17874 8.38617e-10 -2.58946e-10 7.91573e-10 1.45713e-09 -4.50309e-10 1.35742e-09 8.3862e-10 -2.58948e-10 7.91557e-10 7.73091 5.47488 0.417314 8.38615e-10 -2.58945e-10 7.9157e-10 2.90554 0.965183 0.102902 8.38619e-10 -2.58945e-10 7.91572e-10 10.2786 0.731801 0.0259123 8.38615e-10 -2.58944e-10 7.91576e-10 2.22167 -0.733487 -0.20892 -1.03433e-13 2.38231e-15 -5.93372e-14 -73.5896 24.9276 -13.6329 15.1124 -7.88799 -27.8201 0.0370241 5.48374 -0.773075 8.65289e-10 1.57856e-09 7.31811e-10 1.49851e-09 2.72832e-09 1.26146e-09 8.65288e-10 1.57857e-09 7.3183e-10 -7.73091 5.47488 -0.417314 8.65284e-10 1.57856e-09 7.31811e-10 -2.90554 0.965183 -0.102902 8.65275e-10 1.57856e-09 7.31804e-10 -10.2786 0.731801 -0.0259123 8.6529e-10 1.57857e-09 7.31801e-10 -2.22167 -0.733487 0.20892 -2.03217e-16 0.0 -3.88251e-19 -5.84757 -29.7244 3.5496 -0.062559 15.1085 -0.0434361 -0.866235 1.16983 -9.9613 2.03217e-16 0.0 3.88251e-19 -9.40336 0.154311 -0.689753 0.107492 21.655 -0.308627 0.332474 -12.7122 -0.329362
5.73059 84.9145 -44.7139 6.4316 4.0896 1.0944 -5.36237 4.08365 -4.19755 5.04471 -1.51873 -1.15091 -9.59124 -0.494129 -3.07731 7.27101 1.38947 -3.42518 -0.0 0.0 0.0 -0.0 0.0 0.0 -1.55016e-13 -4.02683e-15 -1.03325e-13 82.958 1.5543 -5.10203 -10.6913 -4.57222 19.1043 -0.301632 15.4469 2.22557 1.48381e-09 -8.18179e-10 1.03165e-09 2.5743e-09 -1.4187e-09 1.76301e-09 1.48382e-09 -8.18181e-10 1.03164e-09 7.73091 5.47488 0.417314 1.48381e-09 -8.18178e-10 1.03165e-09 2.90554 0.965183 0.102902 1.48381e-09 -8.18177e-10 1.03165e-09 10.2786 0.731801 0.0259123 1.48381e-09 -8.18177e-10 1.03166e-09 2.22167 -0.733487 -0.20892 -1.55105e-13 -4.03096e-15 -1.03521e-13 -73.4888 25.1909 -13.6903 15.1795 -7.94649 -27.9591 0.0367579 5.46011 -0.769729 1.52001e-09 2.92432e-09 1.04033e-09 2.63161e-09 5.05359e-09 1.79074e-09 1.52001e-09 2.92433e-09 1.04035e-09 -7.73091 5.47488 -0.417314 1.52e-09 2.92431e-09 1.04033e-09 -2.90554 0.965183 -0.102902 1.52e-09 2.92431e-09 1.04033e-09 -10.2786 0.731801 -0.0259123 1.52001e-09 2.92433e-09 1.04032e-09 -2.22167 -0.733487 0.20892 -2.03217e-16 0.0 -3.88251e-19 -5.79111 -29.8907 3.27876 -0.0672299 15.7157 -0.025358 -0.503587 3.20104 -8.39108 2.03217e-16 0.0 3.88251e-19 -9.44848 0.996861 -0.929513 0.0997555 21.2422 -0.322119 0.431954 -12.6145 -0.00860692
5.60727 84.9064 -43.917 6.3819 3.9325 0.9257 -5.57763 4.31679 -3.99258 5.03 -1.63823 -1.09562 -9.62818 -0.568065 -3.12693 7.32279 1.30162 -3.49529 -0.0 0.0 0.0 -0.0 0.0 0.0 -1.93734e-13 -1.43863e-14 -1.50468e-13 82.9163 1.5391 -5.14654 -10.6377 -4.53809 19.0029 -0.316737 15.8197 2.28209 2.04022e-09 -1.3848e-09 1.20579e-09 3.53745e-09 -2.39956e-09 2.05529e-09 2.04023e-09 -1.3848e-09 1.20578e-09 7.73091 5.47488 0.417314 2.04022e-09 -1.3848e-09 1.20579e-09 2.90554 0.965183 0.102902 2.04023e-09 -1.3848e-09 1.20579e-09 10.2786 0.731801 0.0259123 2.04022e-09 -1.3848e-09 1.20579e-09 2.22167 -0.733487 -0.20892 -1.93759e-13 -1.43879e-14 -1.50669e-13 -73.4225 25.4244 -13.7335 15.2353 -7.99554 -28.0744 0.0373493 5.50316 -0.775836 2.12444e-09 4.18166e-09 1.25913e-09 3.67747e-09 7.22579e-09 2.16505e-09 2.12444e-09 4.18167e-09 1.25914e-09 -7.73091 5.47488 -0.417314 2.12444e-09 4.18165e-09 1.25912e-09 -2.90554 0.965183 -0.102902 2.12444e-09 4.18166e-09 1.25912e-09 -10.2786 0.731801 -0.0259123 2.12444e-09 4.18167e-09 1.25912e-09 -2.22167 -0.733487 0.20892 -2.03217e-16 0.0 -3.88251e-19 -5.80525 -30.1987 2.86884 -0.0759794 16.7381 0.00174984 -0.122031 6.58969 -6.35732 2.03217e-16 0.0 3.88251e-19 -9.58221 2.05192 -1.14428 0.0876915 20.6452 -0.343189 0.574807 -12.4498 0.453718
5.51316 84.9085 -43.1016 6.4232 3.7692 0.7429 -5.73676 4.58226 -3.80475 5.01509 -1.77376 -1.04436 -9.67315 -0.624198 -3.1645 7.36725 1.21938 -3.5426 -0.0 0.0 0.0 -0.0 0.0 0.0 -2.1373e-13 -2.52056e-14 -1.88969e-13 82.8484 1.57477 -5.16547 -10.5836 -4.50374 18.9006 -0.332211 16.1856 2.33782 2.38656e-09 -1.82506e-09 1.29137e-09 4.13678e-09 -3.16149e-09 2.19738e-09 2.38657e-09 -1.82507e-09 1.29137e-09 7.73091 5.47488 0.417314 2.38656e-09 -1.82506e-09 1.29137e-09 2.90554 0.965183 0.102902 2.38657e-09 -1.82506e-09 1.29137e-09 10.2786 0.731801 0.0259123 2.38656e-09 -1.82506e-09 1.29138e-09 2.22167 -0.733487 -0.20892 -2.13689e-13 -2.52043e-14 -1.89176e-13 -73.4332 25.5887 -13.7227 15.2771 -8.03249 -28.1608 0.0384837 5.58751 -0.787802 2.52014e-09 5.01628e-09 1.3466e-09 4.36185e-09 8.66733e-09 2.31357e-09 2.52013e-09 5.01629e-09 1.34662e-09 -7.73091 5.47488 -0.417314 2.52013e-09 5.01627e-09 1.3466e-09 -2.90554 0.965183 -0.102902 2.52014e-09 5.01629e-09 1.3466e-09 -10.2786 0.731801 -0.0259123 2.52014e-09 5.01629e-09 1.3466e-09 -2.22167 -0.733487 0.20892 -2.03217e-16 0.0 -3.88251e-19 -5.75923 -30.4919 2.49451 -0.0866477 17.8758 0.0307148 0.0336955 10.0897 -4.4158 2.03217e-16 0.0 3.88251e-19 -9.67758 3.10621 -1.38869 0.0751958 20.1026 -0.366147 0.715235 -12.2448 0.91606
5.4026 84.8763 -42.298 6.3014 3.6195 0.6098 -5.68777 4.82042 -3.71891 4.99587 -1.89358 -1.01913 -9.71172 -0.652795 -3.17551 7.37829 1.16648 -3.54539 -0.0 0.0 0.0 -0.0 0.0 0.0 -2.09269e-13 -3.29996e-14 -2.07233e-13 82.7572 1.68569 -5.15123 -10.5307 -4.47024 18.8006 -0.344901 16.4749 2.38208 2.40154e-09 -2.00523e-09 1.26581e-09 4.16248e-09 -3.47312e-09 2.15245e-09 2.40154e-09 -2.00523e-09 1.2658e-09 7.73091 5.47488 0.417314 2.40154e-09 -2.00523e-09 1.26581e-09 2.90554 0.965183 0.102902 2.40154e-09 -2.00523e-09 1.26581e-09 10.2786 0.731801 0.0259123 2.40153e-09 -2.00523e-09 1.26582e-09 2.22167 -0.733487 -0.20892 -2.09186e-13 -3.29959e-14 -2.07432e-13 -73.5633 25.6448 -13.618 15.3022 -8.05469 -28.2129 0.0398428 5.68782 -0.802033 2.54865e-09 5.09388e-09 1.26117e-09 4.41054e-09 8.80059e-09 2.16549e-09 2.54865e-09 5.09388e-09 1.26118e-09 -7.73091 5.47488 -0.417314 2.54865e-09 5.09387e-09 1.26116e-09 -2.90554 0.965183 -0.102902 2.54865e-09 5.09389e-09 1.26117e-09 -10.2786 0.731801 -0.0259123 2.54866e-09 5.09389e-09 1.26117e-09 -2.22167 -0.733487 0.20892 -2.03217e-16 0.0 -3.88251e-19 -5.51429 -30.615 2.33438 -0.095987 18.8288 0.0540614 0.00466516 12.4326 -3.12434 2.03217e-16 0.0 3.88251e-19 -9.60744 3.94643 -1.71712 0.0667561 19.8529 -0.385463 0.81006 -12.027 1.23744
5.27545 84.9818 -41.4945 6.0095 3.6491 0.4207 -5.32388 5.04646 -3.77808 4.96543 -2.0064 -1.0306 -9.74427 -0.648471 -3.14239 7.34158 1.16188 -3.47085 -0.0 0.0 0.0 -0.0 0.0 0.0 -1.66252e-13 -3.75043e-14 -1.96646e-13 82.632 1.93601 -5.10275 -10.4807 -4.43868 18.7061 -0.352274 16.639 2.40726 1.89412e-09 -1.79298e-09 1.07732e-09 3.28409e-09 -3.1054e-09 1.83385e-09 1.89413e-09 -1.79298e-09 1.07731e-09 7.73091 5.47488 0.417314 1.89412e-09 -1.79298e-09 1.07732e-09 2.90554 0.965183 0.102902 1.89413e-09 -1.79298e-09 1.07732e-09 10.2786 0.731801 0.0259123 1.89412e-09 -1.79298e-09 1.07733e-09 2.22167 -0.733487 -0.20892 -1.66159e-13 -3.74987e-14 -1.96809e-13 -73.8522 25.5497 -13.3902 15.3063 -8.05821 -28.2214 0.0416106 5.81566 -0.820179 1.99822e-09 3.97179e-09 8.95907e-10 3.4568e-09 6.8605e-09 1.53729e-09 1.99821e-09 3.9718e-09 8.9592e-10 -7.73091 5.47488 -0.417314 1.99821e-09 3.97179e-09 8.95902e-10 -2.90554 0.965183 -0.102902 1.99822e-09 3.9718e-09 8.95908e-10 -10.2786 0.731801 -0.0259123 1.99822e-09 3.9718e-09 8.95903e-10 -2.22167 -0.733487 0.20892 -2.03217e-16 0.0 -3.88251e-19 -4.96068 -30.491 2.49734 -0.102317 19.5138 0.0700115 -0.0224426 13.1856 -2.75535 2.03217e-16 0.0 3.88251e-19 -9.29244 4.54875 -2.17209 0.063762 19.9373 -0.3998 0.839632 -11.8297 1.34374
